HIERARCHY
ROOT Hips
{
    OFFSET 0.0 0.0 0.0
    CHANNELS 6 Xposition Yposition Zposition Zrotation Xrotation Yrotation
    JOINT LeftUpLeg
    {
        OFFSET 13.442505110456906 0.0 0.0
        CHANNELS 3 Zrotation Xrotation Yrotation
        JOINT LeftLeg
        {
            OFFSET 0.0 0.0 -48.19508473457206
            CHANNELS 3 Zrotation Xrotation Yrotation
            JOINT LeftFoot
            {
                OFFSET 0.0 0.0 -35.6670337519317
                CHANNELS 3 Zrotation Xrotation Yrotation
                JOINT LeftToeBase
                {
                    OFFSET 0.0 -12.953096084915849 0.0
                    CHANNELS 3 Zrotation Xrotation Yrotation
                    End Site
                    {
                        OFFSET 0 0 0
                    }
                }
            }
        }
    }
    JOINT RightUpLeg
    {
        OFFSET -13.442505110456906 0.0 0.0
        CHANNELS 3 Zrotation Xrotation Yrotation
        JOINT RightLeg
        {
            OFFSET 0.0 0.0 -48.19508473457206
            CHANNELS 3 Zrotation Xrotation Yrotation
            JOINT RightFoot
            {
                OFFSET 0.0 0.0 -35.6670337519317
                CHANNELS 3 Zrotation Xrotation Yrotation
                JOINT RightToeBase
                {
                    OFFSET 0.0 -12.953096084915849 0.0
                    CHANNELS 3 Zrotation Xrotation Yrotation
                    End Site
                    {
                        OFFSET 0 0 0
                    }
                }
            }
        }
    }
    JOINT Spine
    {
        OFFSET 0.0 0.0 11.817159791054463
        CHANNELS 3 Zrotation Xrotation Yrotation
        JOINT Spine1
        {
            OFFSET 0.0 0.0 11.738384847680711
            CHANNELS 3 Zrotation Xrotation Yrotation
            JOINT Spine2
            {
                OFFSET 0.0 0.0 11.738384847680711
                CHANNELS 3 Zrotation Xrotation Yrotation
                JOINT Spine3
                {
                    OFFSET 0.0 0.0 11.73838484768071
                    CHANNELS 3 Zrotation Xrotation Yrotation
                    JOINT Spine4
                    {
                        OFFSET 0.0 0.0 11.738384847680715
                        CHANNELS 3 Zrotation Xrotation Yrotation
                        JOINT RightShoulder
                        {
                            OFFSET -22.05263985992539 0.0 0.0
                            CHANNELS 3 Zrotation Xrotation Yrotation
                            JOINT RightArm
                            {
                                OFFSET -31.928376856658417 0.0 0.0
                                CHANNELS 3 Zrotation Xrotation Yrotation
                                JOINT RightForeArm
                                {
                                    OFFSET -31.02327086587404 0.0 0.0
                                    CHANNELS 3 Zrotation Xrotation Yrotation
                                    JOINT RightHand
                                    {
                                        OFFSET -11.003265995816982 0.0 0.0
                                        CHANNELS 3 Zrotation Xrotation Yrotation
                                        End Site
                                        {
                                            OFFSET 0 0 0
                                        }
                                    }
                                }
                            }
                        }
                        JOINT LeftShoulder
                        {
                            OFFSET 22.05263985992539 0.0 0.0
                            CHANNELS 3 Zrotation Xrotation Yrotation
                            JOINT LeftArm
                            {
                                OFFSET 31.928376856658417 0.0 0.0
                                CHANNELS 3 Zrotation Xrotation Yrotation
                                JOINT LeftForeArm
                                {
                                    OFFSET 31.02327086587404 0.0 0.0
                                    CHANNELS 3 Zrotation Xrotation Yrotation
                                    JOINT LeftHand
                                    {
                                        OFFSET 11.003265995816982 0.0 0.0
                                        CHANNELS 3 Zrotation Xrotation Yrotation
                                        End Site
                                        {
                                            OFFSET 0 0 0
                                        }
                                    }
                                }
                            }
                        }
                        JOINT Neck
                        {
                            OFFSET 0.0 0.0 11.738384902868257
                            CHANNELS 3 Zrotation Xrotation Yrotation
                            JOINT Head
                            {
                                OFFSET 0.0 0.0 25.233230366943136
                                CHANNELS 3 Zrotation Xrotation Yrotation
                                End Site
                                {
                                    OFFSET 0 0 0
                                }
                            }
                        }
                    }
                }
            }
        }
    }
}
MOTION
Frames: 4
Frame Time: 0.03333333333333333
52.11201009750366 -24.76612844467163 454.92224864959724 100.25767529721148 -78.65813449748006 100.08563929984452 2.7188890889830652 -0.5858637168106189 -28.413116455923287 0.7546905272088689 -0.20863442838985322 47.390614473574644 -105.24692131895158 -9.54166404439055e-15 69.58640550596465 0.0 -3.1805546814635168e-15 0.0 13.098311776481975 15.286499917259876 19.79250358506946 -17.206528411231435 -7.5933211897809025 -40.54154745795363 -76.67010588816467 9.54166404439055e-15 -33.546711833709864 -1.5902773407317588e-15 0.0 0.0 -0.0061195811938438635 0.1281578091247158 -0.3648404895204423 1.5902773407317582e-15 0.0 0.0 1.5902773407317582e-15 0.0 0.0 1.5902773407317582e-15 0.0 0.0 1.5902773407317582e-15 0.0 0.0 134.52567619997927 12.131227541128895 -157.58004163247654 107.40148166084268 1.8828971438841638e-15 -2.563323316972003e-15 1.055210857632065e-14 56.560934421934 -1.2900374536560689e-14 0.0 0.0 0.0 -141.07830464945303 10.919172282030699 158.57752799130955 -114.54991401479181 1.777375222343307e-14 -7.640881554235031e-15 -180.0 37.56465766195374 180.0 7.951386703658792e-16 -1.1034765745125397e-32 -1.5902773407317584e-15 -3.6817581599490374 -3.70116130064461e-15 6.765922254146634e-16 -7.95138670365879e-16 6.361109362927033e-15 -7.95138670365879e-16
52.11201009750366 -24.76612844467163 454.92224864959724 100.25767529721148 -78.65813449748006 100.08563929984452 2.7188890889830652 -0.5858637168106189 -28.413116455923287 0.7546905272088689 -0.20863442838985322 47.390614473574644 -105.24692131895158 -9.54166404439055e-15 69.58640550596465 0.0 -3.1805546814635168e-15 0.0 13.098311776481975 15.286499917259876 19.79250358506946 -17.206528411231435 -7.5933211897809025 -40.54154745795363 -76.67010588816467 9.54166404439055e-15 -33.546711833709864 -1.5902773407317588e-15 0.0 0.0 -0.0061195811938438635 0.1281578091247158 -0.3648404895204423 1.5902773407317582e-15 0.0 0.0 1.5902773407317582e-15 0.0 0.0 1.5902773407317582e-15 0.0 0.0 1.5902773407317582e-15 0.0 0.0 134.52567619997927 12.131227541128895 -157.58004163247654 107.40148166084268 1.8828971438841638e-15 -2.563323316972003e-15 1.055210857632065e-14 56.560934421934 -1.2900374536560689e-14 0.0 0.0 0.0 -141.07830464945303 10.919172282030699 158.57752799130955 -114.54991401479181 1.777375222343307e-14 -7.640881554235031e-15 -180.0 37.56465766195374 180.0 7.951386703658792e-16 -1.1034765745125397e-32 -1.5902773407317584e-15 -3.6817581599490374 -3.70116130064461e-15 6.765922254146634e-16 -7.95138670365879e-16 6.361109362927033e-15 -7.95138670365879e-16
52.11201009750366 -24.76612844467163 454.92224864959724 100.25767529721148 -78.65813449748006 100.08563929984452 2.7188890889830652 -0.5858637168106189 -28.413116455923287 0.7546905272088689 -0.20863442838985322 47.390614473574644 -105.24692131895158 -9.54166404439055e-15 69.58640550596465 0.0 -3.1805546814635168e-15 0.0 13.098311776481975 15.286499917259876 19.79250358506946 -17.206528411231435 -7.5933211897809025 -40.54154745795363 -76.67010588816467 9.54166404439055e-15 -33.546711833709864 -1.5902773407317588e-15 0.0 0.0 -0.0061195811938438635 0.1281578091247158 -0.3648404895204423 1.5902773407317582e-15 0.0 0.0 1.5902773407317582e-15 0.0 0.0 1.5902773407317582e-15 0.0 0.0 1.5902773407317582e-15 0.0 0.0 134.52567619997927 12.131227541128895 -157.58004163247654 107.40148166084268 1.8828971438841638e-15 -2.563323316972003e-15 1.055210857632065e-14 56.560934421934 -1.2900374536560689e-14 0.0 0.0 0.0 -141.07830464945303 10.919172282030699 158.57752799130955 -114.54991401479181 1.777375222343307e-14 -7.640881554235031e-15 -180.0 37.56465766195374 180.0 7.951386703658792e-16 -1.1034765745125397e-32 -1.5902773407317584e-15 -3.6817581599490374 -3.70116130064461e-15 6.765922254146634e-16 -7.95138670365879e-16 6.361109362927033e-15 -7.95138670365879e-16
52.10664403438569 -24.755238246917727 454.84041595458984 101.21679752457405 -78.6844705646788 101.04101170176658 2.6049768031258704 -0.3524037844921876 -28.602720200472678 0.8966204945755473 -0.2457325424904924 48.025528603320744 -105.34283080585337 3.1805546814635168e-15 69.71816886002027 0.0 0.0 0.0 13.37002672256286 15.61942097981016 19.913510453548046 -17.53348237428417 -7.622213337838677 -40.99021867980909 -77.34024581374162 1.2722218725854067e-14 -33.483832023154385 -1.5902773407317584e-15 0.0 0.0 -0.012984689011740816 0.2852742018956608 -0.37403208689559814 7.951386703658792e-16 0.0 0.0 7.951386703658792e-16 0.0 0.0 7.951386703658792e-16 0.0 0.0 7.951386703658792e-16 0.0 0.0 134.67599588746972 12.37586303599497 -157.4814047467394 107.04325756694524 -9.284248183953872e-15 -8.842316833707442e-15 -3.000151105050728e-15 55.10491020894753 1.9502328202269186e-14 1.5902773407317584e-15 0.0 0.0 -140.20445901156498 13.183989584087112 158.45612843529477 -113.07304649186058 1.0613351757884842e-14 -7.015098985180084e-15 -180.0 41.56865064225063 180.0 7.951386703658792e-16 0.0 0.0 -3.6109469557525253 3.675690666310345e-15 1.1586472012077188e-16 7.951386703658791e-16 -5.517382872562698e-33 -7.951386703658791e-16
